name processed_emg_signals
nRows=67
nColumns=7
 
endheader
time	RGLTMED	RRF	RADDLONG	RST	RTA	RGM
1.927	0.3674476815221354	0.273728248940764	0.694099764273126	0.0136343962294857	0.9893693469337126	0.0046549411008315
1.928	0.3661458475238984	0.2758836645763512	0.6874760631872509	0.0128004959210018	0.9915187918799796	0.0054707149260856
1.929	0.36477542265621	0.2779612594146441	0.6808161141487997	0.0120483783481795	0.9934283070269834	0.0062969616477925
1.93	0.3633382614742192	0.2799589504268313	0.6741243380542126	0.0113768421445511	0.9950967720818884	0.0071328057378559
1.931	0.361836288811669	0.2818747071799159	0.6674051247212078	0.0107846866493095	0.9965232037535756	0.0079774071621388
1.932	0.3602714962610518	0.2837065546701424	0.6606628288927573	0.0102707138247133	0.9977067554710652	0.0088299614078395
1.933	0.3586459385731032	0.2854525761659034	0.6539017664261921	0.0098337301120666	0.9986467170930552	0.0096896994553059
1.934	0.3569617299867553	0.2871109160549358	0.6471262106649278	0.0094725482242621	0.999342514607144	0.0105558876958419
1.935	0.3552210405014067	0.2886797826901328	0.640340388988562	0.0091859888729179	0.9997937098151932	0.0114278277971614
1.936	0.3534260921031589	0.2901574512276678	0.6335484795356432	0.008972882428477	1.0	0.0123048565181821
1.937	0.3515791549566573	0.2915422664502338	0.6267546080921826	0.0088320705118274	0.99996121756755	0.0131863454749699
1.938	0.3496825435737919	0.2928326455673679	0.6199628451386665	0.0087624075160993	0.99967732965844	0.0140717008596885
1.939	0.3477386129701832	0.2940270809839975	0.6131772030487233	0.0087627620576288	0.9991484377218688	0.0149603631144737
1.94	0.3457497548202017	0.2951241430278532	0.6064016334330155	0.0088320183551465	0.9983747770465924	0.0158518065622148
1.941	0.3437183936206262	0.296122482626069	0.5996400246229616	0.0089690775365116	0.9973567162457428	0.0167455389963102
1.942	0.3416469828726502	0.2970208339215314	0.5928961992890667	0.0091728588724194	0.9960947566959544	0.0176411012314738
1.943	0.3395380012910217	0.2978180168197403	0.5861739121890961	0.0094423009367026	0.9945895319347188	0.0185380666177597
1.944	0.3373939490488933	0.2985129394576514	0.5794768480417569	0.00977636269295	0.9928418070224722	0.0194360405199634
1.945	0.3352173440659606	0.2991046005863833	0.5728086195213612	0.0101740245073738	0.9908524778772172	0.0203346597646426
1.946	0.3330107183469491	0.2995920918602808	0.5661727653687997	0.010634289087895	0.9886225705893248	0.0212335920570215
1.947	0.330776614376653	0.2999746000247852	0.5595727486139325	0.0111561823495683	0.9861532407233164	0.0221325353700978
1.948	0.3285175815764625	0.3002514089953901	0.5530119549040345	0.0117387542064786	0.9834457726120012	0.023031217308275
1.949	0.326236172827004	0.3004219018198339	0.5464936909327853	0.0123810792903338	0.9805015786466752	0.0239293944478793
1.95	0.3239349410603146	0.3004855625157213	0.5400211829633692	0.0130822575960373	0.9773221985656372	0.0248268516568894
1.951	0.321616435924911	0.3004419777759411	0.5335975754389913	0.0138414150546241	0.9739092987427008	0.0257234013962334
1.952	0.3192832005262249	0.3002908385343794	0.5272259296735088	0.014657704034157	0.9702646714775652	0.0266188830050283
1.953	0.3169377682446824	0.300031941384724	0.5209092226150973	0.0155303037692889	0.9663902342902296	0.027513161972167
1.954	0.3145826596328991	0.299665189845436	0.5146503456761325	0.0164584207205321	0.9622880292212002	0.0284061291966611
1.955	0.3122203793931118	0.2991905954643482	0.5084521036231011	0.0174412888644456	0.9579602221379602	0.0292977002391987
1.956	0.3098534134353107	0.2986082787566422	0.5023172135212514	0.0184781699161602	0.9534091020471644	0.0301878145673292
1.957	0.3074842260159915	0.2979184699702478	0.4962483037300395	0.0195683534857498	0.9486370804114044	0.0310764347966736
1.958	0.3051152569571142	0.2971215096732077	0.4902479129471101	0.0207111571701418	0.9436466904693416	0.0319635459305098
1.959	0.302748918944604	0.296217849157942	0.4843184893002675	0.0219059265822544	0.938440586558272	0.0328491546000054
1.96	0.3003875949059008	0.2952080506575565	0.4784623894883858	0.023152035319202	0.9330215434389636	0.0337332883073606
1.961	0.298033635466024	0.2940927873695297	0.472681877973743	0.0244488848714312	0.9273924556237364	0.0346159946740779
1.962	0.2956893564819523	0.2928728432824616	0.4669791262288855	0.0257959044748098	0.9215563367092918	0.0354973406965968
1.963	0.2933570366553859	0.291549112802084	0.46135621204233	0.0271925509076906	0.9155163187156375	0.0363774120115993
1.964	0.2910389152242781	0.2901226001735819	0.4558151188870338	0.0286383082351901	0.9092756514312686	0.0372563121732758
1.965	0.2887371897339299	0.2885944186980831	0.4503577353558517	0.0301326875030155	0.9028377017631608	0.0381341619448922
1.966	0.286454013888599	0.2869657897420894	0.4449858546677456	0.0316752263833987	0.8962059530883563	0.0390110986069607
1.967	0.2841914954843907	0.2852380415392934	0.4397011742481496	0.0332654887759156	0.8893840046023109	0.0398872752842613
1.968	0.2819516944238787	0.2834126077849302	0.4345052953862571	0.0349030643661655	0.8823755706575228	0.0407628602938501
1.969	0.2797366208122098	0.2814910260234488	0.4293997229715001	0.0365875681454601	0.8751844800841599	0.0416380365161586
1.97	0.2775482331338833	0.2794749358309155	0.4243858653104688	0.0383186398947872	0.8678146754822681	0.0425130007911474
1.971	0.2753884365091862	0.2773660767944263	0.4194650340252496	0.0400959436363647	0.8602702124732632	0.0433879633414338
1.972	0.273259081028997	0.275166286291659	0.4146384440340389	0.0419191670561943	0.8525552588967663	0.044263147224198
1.973	0.2711619601672266	0.2728774970747677	0.40990721361498	0.0437880209011205	0.8446740939380905	0.0451387878135522
1.974	0.2690988092704833	0.2705017346635677	0.4052723645550304	0.0457022383539219	0.8366311071715327	0.0460151323149671
1.975	0.2670713041255005	0.2680411145536624	0.4007348223858599	0.0476615743901389	0.8284307975052343	0.0468924393132142
1.976	0.2650810596056878	0.2654978392455592	0.3962954167097273	0.0496658051203042	0.8200777720143076	0.0477709783551777
1.977	0.2631296283986152	0.2628741951013899	0.3919548816180684	0.051714727121354	0.8115767446501433	0.0486510295687485
1.978	0.2612184998168056	0.2601725490364597	0.3877138562054528	0.0538081567608269	0.8029325348153664	0.0495328833188506
1.979	0.2593490986941461	0.2573953450536768	0.3835728851806798	0.0559459295175625	0.7941500657955827	0.0504168399015253
1.98	0.2575227843702301	0.254545100629827	0.3795324195764604	0.0581278993022155	0.785234363040451	0.0513032092768139
1.981	0.2557408497644965	0.2516244029635073	0.3755928175581232	0.0603539377809708	0.776190552287378	0.0521923108410541
1.982	0.254004520541903	0.2486359050950386	0.3717543453310938	0.0626239337054617	0.7670238575213214	0.0530844732390302
1.983	0.2523149543714056	0.2455823219093162	0.368017178145853	0.0649377922518565	0.7577395987644066	0.05398003421631
1.984	0.2506732402784249	0.2424664260330192	0.3643814013980767	0.0672954343717854	0.7483431896892561	0.054879340511973
1.985	0.2490803980920048	0.2392910436380922	0.3608470118209658	0.0696967961577047	0.7388401350497229	0.0557827477918183
1.986	0.2475373779871222	0.2360590501637474	0.3574139187659584	0.0721418282250255	0.7292360279226561	0.0566906206219831
1.987	0.2460450601219355	0.2327733659692955	0.3540819455678139	0.0746304951132476	0.71953654675445	0.0576033324827825
1.988	0.2446042543692199	0.2294369519298016	0.3508508309896478	0.0771627747081769	0.7097474522070366	0.0585212658224089
1.989	0.2432157001406523	0.2260528049861762	0.3477202307433136	0.0797386576871117	0.6998745837994285	0.0594448121499449
1.99	0.2418800663020719	0.222623953660758	0.3446897190805942	0.0823581469887546	0.6899238563427371	0.0603743721669661
1.991	0.2405979511774748	0.2191534535492127	0.3417587904502186	0.0850212573094997	0.6799012561683403	0.0613103559368128
1.992	0.2393698826390894	0.2156443827992469	0.3389268612157163	0.08772801462743	0.6698128371501781	0.0622531830904647
1.993	0.2381963182808088	0.2120998375867452	0.3361932714283593	0.0904784557553162	0.659664716523119	0.0632032830677168
